<svg xmlns="http://www.w3.org/2000/svg" viewBox="0 0 61.63 66.45"><defs><style>.cls-1{fill:#090a0a;}</style></defs><g id="Capa_2" data-name="Capa 2"><g id="Capa_1-2" data-name="Capa 1"><path class="cls-1" d="M58.7,14.09H45.51V12.62C45.51,4.82,38.12,0,31.28,0S17,4.82,17,12.62v1.47H2.93A2.93,2.93,0,0,0,0,17V63.51a2.94,2.94,0,0,0,2.93,2.94H58.7a2.94,2.94,0,0,0,2.93-2.94V17A2.93,2.93,0,0,0,58.7,14.09ZM22.91,12.62c0-4,4.33-6.75,8.37-6.75s8.36,2.71,8.36,6.75v1.47H22.91Zm32.85,48H5.87V20H17v5.87H15.57v5.86h8.81V25.83H22.91V20H39.64v5.87H38.15v5.86H47V25.83H45.51V20H55.76Z"/><rect class="cls-1" x="8.68" y="51.99" width="44.04" height="6.21" rx="1.45"/><rect class="cls-1" x="8.68" y="42.86" width="44.04" height="6.21" rx="1.45"/><rect class="cls-1" x="8.68" y="33.74" width="44.04" height="6.21" rx="1.45"/></g></g></svg>