<svg xmlns="http://www.w3.org/2000/svg" viewBox="0 0 37.58 75.52"><defs><style>.cls-1{fill:#030405;}</style></defs><g id="Capa_2" data-name="Capa 2"><g id="Capa_1-2" data-name="Capa 1"><g id="Grupo_23" data-name="Grupo 23"><path id="Trazado_12" data-name="Trazado 12" class="cls-1" d="M24.31,41.16c-1,0-1.13,1-1.13,1.58V71.56c0,1.68,0,3.87-1.65,3.87-5.22,0-2.75.09-9.92.09-1.69,0-1.89,0-1.89-1.66V42.54c0-1.57,0-1.61-1.57-1.61H1.82C0,40.93.15,40.76.09,39.23,0,37,0,30.7,0,28.87c0-.71.23-.94.94-.93,2.5,0,5,0,7.5,0,.89,0,1.19-.22,1.17-1.14,0-3.55-.11-7.1,0-10.66A15.5,15.5,0,0,1,22.47.66,37.22,37.22,0,0,1,32.52.13c1.41,0,2.67.2,4.23.32.65,0,.77.31.76.88-.09,3.55-.17,7.1-.22,10.65,0,.71-.32.82-.94.82a88.27,88.27,0,0,0-8.91.06,3.76,3.76,0,0,0-3.87,3.65v.22c-.33,3.51-.07,7-.15,10.54,0,.85.55.7,1,.7H36.19c1.41,0,1.48,0,1.34,1.43-.37,3.66-1,7.19-1.62,10.5-.21,1.16-.59,1.24-1.56,1.25Z"/></g></g></g></svg>