<svg xmlns="http://www.w3.org/2000/svg" viewBox="0 0 75.63 75.65"><defs><style>.cls-1{fill:#030405;}</style></defs><g id="Capa_2" data-name="Capa 2"><g id="Capa_1-2" data-name="Capa 1"><g id="Grupo_24" data-name="Grupo 24"><path id="Trazado_13" data-name="Trazado 13" class="cls-1" d="M38.24,75.62c-6.45,0-13.11,0-20-.07A16.4,16.4,0,0,1,.1,61a15.91,15.91,0,0,1,0-3.65C0,42.28,0,29.75.11,18,.19,6.52,6.56.17,18,.08,30.55,0,43.46,0,57.48.08,69.16.16,75.41,6.44,75.56,18.23c0,4.57,0,9.2,0,13.68V44.05c0,4.47,0,9.09,0,13.65A16.31,16.31,0,0,1,61,75.55a15.92,15.92,0,0,1-3.31,0C51.31,75.59,44.87,75.62,38.24,75.62Zm-.8-69.57c-6.61,0-13,0-19.37.08a12.49,12.49,0,0,0-9,2.93A12.35,12.35,0,0,0,6.14,18c-.09,11.77-.09,24.28,0,39.35C6.19,65.8,9.8,69.44,18.23,69.5c14,.1,26.9.1,39.34,0,8.11-.07,11.78-3.74,11.9-11.89.07-4.5.06-9.1,0-13.54V38h0V31.9c0-4.46,0-9.07,0-13.6-.09-8.47-3.7-12.11-12.05-12.17-6.91,0-13.54-.08-20-.08Z"/><path id="Trazado_14" data-name="Trazado 14" class="cls-1" d="M38,63.22A24.35,24.35,0,0,1,13.89,40.15a24.74,24.74,0,0,1,6.92-18,23.69,23.69,0,0,1,16.93-7.35H38a23.85,23.85,0,0,1,17,7.07A24.1,24.1,0,0,1,38.29,63.22Zm0-42.35H37.8a17.69,17.69,0,0,0-12.63,5.49A18.73,18.73,0,0,0,19.94,40,18.18,18.18,0,0,0,38,57.16h.21A18.29,18.29,0,0,0,56.17,39.55,18.58,18.58,0,0,0,50.7,26.17,17.94,17.94,0,0,0,38,20.88Z"/><path id="Trazado_15" data-name="Trazado 15" class="cls-1" d="M61.65,16.27a2.69,2.69,0,1,1,2.67-2.72v.1A2.71,2.71,0,0,1,61.65,16.27Z"/></g></g></g></svg>