<svg xmlns="http://www.w3.org/2000/svg" viewBox="0 0 98.14 18.69"><defs><style>.cls-1{fill:#1d1d1b;}</style></defs><g id="Capa_2" data-name="Capa 2"><g id="Capa_1-2" data-name="Capa 1"><path class="cls-1" d="M0,1.7A1.23,1.23,0,0,1,1.39.3H2.81A1.22,1.22,0,0,1,4.18,1.7v.23a.34.34,0,0,1,0,.1.34.34,0,0,0,0,.1v.13h0a8.81,8.81,0,0,1,.57-.74A4.15,4.15,0,0,1,5.6.79,5,5,0,0,1,6.71.23,4,4,0,0,1,8.09,0a4.24,4.24,0,0,1,2.19.55,3.46,3.46,0,0,1,1.46,1.66h0a4.38,4.38,0,0,1,.67-.8A5.73,5.73,0,0,1,13.41.7,5.46,5.46,0,0,1,14.59.19,4.86,4.86,0,0,1,16,0a5.29,5.29,0,0,1,1.66.25A3.31,3.31,0,0,1,19,1.09a4.12,4.12,0,0,1,.9,1.52,7,7,0,0,1,.33,2.28V12a1.23,1.23,0,0,1-1.39,1.39h-1.6A1.23,1.23,0,0,1,15.82,12V5.63a3.05,3.05,0,0,0-.19-1.19A.78.78,0,0,0,14.81,4a2.06,2.06,0,0,0-1.19.33,2.58,2.58,0,0,0-.78.86,4.14,4.14,0,0,0-.41,1.23,7.64,7.64,0,0,0-.13,1.44V12a1.23,1.23,0,0,1-1.4,1.39H9.31A1.23,1.23,0,0,1,7.91,12V5.63a3.05,3.05,0,0,0-.19-1.19A.78.78,0,0,0,6.9,4a2,2,0,0,0-1.24.36,2.41,2.41,0,0,0-.77.9A4.44,4.44,0,0,0,4.5,6.47a8.94,8.94,0,0,0-.11,1.37V12A1.23,1.23,0,0,1,3,13.36H1.39A1.23,1.23,0,0,1,0,12Z"/><path class="cls-1" d="M23.23,1.7A1.23,1.23,0,0,1,24.62.3h1.6a1.24,1.24,0,0,1,1.4,1.4V8A2,2,0,0,0,28,9.28a1.31,1.31,0,0,0,1,.41,2.54,2.54,0,0,0,1.23-.29,2.6,2.6,0,0,0,.86-.79,3.48,3.48,0,0,0,.51-1.14,5.55,5.55,0,0,0,.17-1.38V1.7A1.23,1.23,0,0,1,33.17.3h1.6a1.23,1.23,0,0,1,1.39,1.4V12a1.23,1.23,0,0,1-1.39,1.39H33.35A1.22,1.22,0,0,1,32,12v-.43a.51.51,0,0,1,0-.13H32a3.68,3.68,0,0,1-1.65,1.66,5,5,0,0,1-2.43.6,6.6,6.6,0,0,1-1.81-.25,3.9,3.9,0,0,1-1.49-.83,3.82,3.82,0,0,1-1-1.51,6.69,6.69,0,0,1-.35-2.31Z"/><path class="cls-1" d="M39.51,1.7A1.23,1.23,0,0,1,40.9.3h1.42a1.22,1.22,0,0,1,1.37,1.4v.23a.34.34,0,0,1,0,.1.34.34,0,0,0,0,.1v.13h0a8.81,8.81,0,0,1,.57-.74,4.15,4.15,0,0,1,.82-.73A5,5,0,0,1,46.22.23,4,4,0,0,1,47.6,0a4.24,4.24,0,0,1,2.19.55,3.46,3.46,0,0,1,1.46,1.66h0a4,4,0,0,1,.67-.8,5.73,5.73,0,0,1,1-.71A5.46,5.46,0,0,1,54.1.19,4.86,4.86,0,0,1,55.49,0a5.29,5.29,0,0,1,1.66.25,3.31,3.31,0,0,1,1.34.84,4.12,4.12,0,0,1,.9,1.52,7,7,0,0,1,.33,2.28V12a1.23,1.23,0,0,1-1.39,1.39h-1.6A1.23,1.23,0,0,1,55.33,12V5.63a3.05,3.05,0,0,0-.19-1.19A.78.78,0,0,0,54.32,4a2.06,2.06,0,0,0-1.19.33,2.58,2.58,0,0,0-.78.86,4.14,4.14,0,0,0-.41,1.23,7.64,7.64,0,0,0-.13,1.44V12a1.23,1.23,0,0,1-1.4,1.39H48.82A1.23,1.23,0,0,1,47.42,12V5.63a3.05,3.05,0,0,0-.19-1.19A.79.79,0,0,0,46.41,4a2.06,2.06,0,0,0-1.25.36,2.47,2.47,0,0,0-.76.9A4.44,4.44,0,0,0,44,6.47a7.83,7.83,0,0,0-.11,1.37V12a1.23,1.23,0,0,1-1.4,1.39H40.9A1.23,1.23,0,0,1,39.51,12Z"/><path class="cls-1" d="M62.89,1.7A1.24,1.24,0,0,1,64.29.3h1.42a1.23,1.23,0,0,1,1.37,1.4v.23a.36.36,0,0,1,0,.1.34.34,0,0,0,0,.1v.13h0a8.81,8.81,0,0,1,.57-.74A4,4,0,0,1,68.5.79,4.73,4.73,0,0,1,69.6.23,4,4,0,0,1,71,0a4.24,4.24,0,0,1,2.19.55,3.46,3.46,0,0,1,1.46,1.66h.05a4.38,4.38,0,0,1,.67-.8,5.43,5.43,0,0,1,1-.71A5.06,5.06,0,0,1,77.49.19,4.75,4.75,0,0,1,78.87,0a5.29,5.29,0,0,1,1.66.25,3.31,3.31,0,0,1,1.34.84,4.12,4.12,0,0,1,.9,1.52,7,7,0,0,1,.33,2.28V12a1.23,1.23,0,0,1-1.39,1.39h-1.6A1.23,1.23,0,0,1,78.72,12V5.63a3,3,0,0,0-.2-1.19A.78.78,0,0,0,77.7,4a2.06,2.06,0,0,0-1.19.33,2.45,2.45,0,0,0-.77.86,3.88,3.88,0,0,0-.42,1.23,7.64,7.64,0,0,0-.13,1.44V12a1.23,1.23,0,0,1-1.39,1.39H72.2A1.23,1.23,0,0,1,70.8,12V5.63a3.05,3.05,0,0,0-.19-1.19A.78.78,0,0,0,69.79,4a2,2,0,0,0-1.24.36,2.3,2.3,0,0,0-.76.9,4.13,4.13,0,0,0-.4,1.23,8.94,8.94,0,0,0-.11,1.37V12a1.23,1.23,0,0,1-1.4,1.39H64.29A1.23,1.23,0,0,1,62.89,12Z"/><path class="cls-1" d="M86.26,15.06A1.34,1.34,0,0,1,87,15l.35.09a2.54,2.54,0,0,0,.41,0,1.66,1.66,0,0,0,1.08-.4,2.35,2.35,0,0,0,.72-1l.26-.61L85,1.93A1.21,1.21,0,0,1,85,.75,1.21,1.21,0,0,1,86.07.3h2a1.55,1.55,0,0,1,1.6,1.15l1.54,4.86c0,.19.11.4.17.64l.16.66a5.27,5.27,0,0,1,.15.73h.06l.15-.71q0-.3.12-.63c0-.22.11-.42.16-.61L93.47,1.5A1.49,1.49,0,0,1,95.05.3H96.9A1.26,1.26,0,0,1,98,.74,1.17,1.17,0,0,1,98,1.9L93.25,14.76a6.34,6.34,0,0,1-1,1.84,5.58,5.58,0,0,1-1.33,1.21,5,5,0,0,1-1.52.68,6.66,6.66,0,0,1-1.59.2,4.43,4.43,0,0,1-1-.1c-.32-.07-.6-.15-.85-.23a1.14,1.14,0,0,1-.8-.71,1.55,1.55,0,0,1,.11-1.12l.33-.73A1.39,1.39,0,0,1,86.26,15.06Z"/></g></g></svg>