<svg xmlns="http://www.w3.org/2000/svg" viewBox="0 0 61.54 78.7"><defs><style>.cls-1{fill:#030405;}</style></defs><g id="Capa_2" data-name="Capa 2"><g id="Capa_1-2" data-name="Capa 1"><g id="Grupo_21" data-name="Grupo 21"><path id="Trazado_9" data-name="Trazado 9" class="cls-1" d="M26,51.65C23.53,61.71,21.28,71.12,13.85,78.7a38.27,38.27,0,0,1,0-19.45c1.19-5.61,2.64-11.16,4.1-16.71a19.07,19.07,0,0,0,.6-10,12.84,12.84,0,0,1,2-11.27,7.25,7.25,0,0,1,9-3A6.33,6.33,0,0,1,33,26c-.86,4.16-2.18,8.23-3.3,12.33-.9,3.32-1.24,6.53,2,8.92a8.51,8.51,0,0,0,9.71.43,14.65,14.65,0,0,0,6.94-7.43,33.66,33.66,0,0,0,3.35-10.9c.7-7.75,0-14.43-8.86-19A23,23,0,0,0,18.06,12,19.48,19.48,0,0,0,9.35,32a10.22,10.22,0,0,0,3,6.49c.78.67,1.6,1.35,1.22,2.5a8.68,8.68,0,0,1-2.13,3.34c-2,1.51-4.82-.49-6.38-2-5.48-5.21-6.62-16.12-2.8-24.47C11.52-2.37,41.39-6.3,55.93,10.64c5.72,6.68,7.35,18.51,3.55,28.73C55.93,48.89,50,55.49,39.57,56.71A16.34,16.34,0,0,1,26,51.65Z"/></g></g></g></svg>