<svg xmlns="http://www.w3.org/2000/svg" viewBox="0 0 86.45 63.83"><defs><style>.cls-1{fill:#030405;}</style></defs><g id="Capa_2" data-name="Capa 2"><g id="Capa_1-2" data-name="Capa 1"><g id="Grupo_22" data-name="Grupo 22"><path id="Trazado_10" data-name="Trazado 10" class="cls-1" d="M51.42,63.83c-13.85,0-30.49-.19-36.26-.46C6.35,63,1.49,58.22.72,49.3a198.94,198.94,0,0,1,0-33.82C1.51,6.31,6.59,1.37,15.83.82a456.58,456.58,0,0,1,54.62,0c9.82.59,14.73,5.49,15.43,15.42A225.8,225.8,0,0,1,85.9,48c-.73,10.35-5.57,15.17-15.7,15.63C66.78,63.77,59.58,63.83,51.42,63.83Zm-36-6.51c9.87.46,46,.63,54.47.24,7-.32,9.43-2.75,10-10a219.63,219.63,0,0,0,0-30.89c-.48-6.93-3-9.4-9.75-9.81a452.93,452.93,0,0,0-53.9,0C9.92,7.23,7.28,9.79,6.74,16a193,193,0,0,0,0,32.79c.53,5.95,2.88,8.27,8.7,8.54Z"/><path id="Trazado_11" data-name="Trazado 11" class="cls-1" d="M33,17.93l27.74,15.2L33,48.08Z"/></g></g></g></svg>